  0
SECTION
  2
HEADER
  9
$ACADVER
  1
AC1014
  9
$HANDSEED
  5
FFFF
  9
$MEASUREMENT
 70
     1
  0
ENDSEC
  0
SECTION
  2
TABLES
  0
TABLE
  2
VPORT
  5
8
330
0
100
AcDbSymbolTable
 70
     4
  0
VPORT
  5
2E
330
8
100
AcDbSymbolTableRecord
100
AcDbViewportTableRecord
  2
*ACTIVE
 70
     0
 10
0.0
 20
0.0
 11
1.0
 21
1.0
 12
210.0
 22
148.5
 13
0.0
 23
0.0
 14
10.0
 24
10.0
 15
10.0
 25
10.0
 16
0.0
 26
0.0
 36
1.0
 17
0.0
 27
0.0
 37
0.0
 40
341.0
 41
1.24
 42
50.0
 43
0.0
 44
0.0
 50
0.0
 51
0.0
 71
     0
 72
   100
 73
     1
 74
     3
 75
     0
 76
     0
 77
     0
 78
     0
  0
ENDTAB
  0
TABLE
  2
LTYPE
  5
5
330
0
100
AcDbSymbolTable
 70
     1
  0
LTYPE
  5
14
330
5
100
AcDbSymbolTableRecord
100
AcDbLinetypeTableRecord
  2
BYBLOCK
 70
     0
  3

 72
    65
 73
     0
 40
0.0
  0
LTYPE
  5
15
330
5
100
AcDbSymbolTableRecord
100
AcDbLinetypeTableRecord
  2
BYLAYER
 70
     0
  3

 72
    65
 73
     0
 40
0.0
  0
LTYPE
  5
16
330
5
100
AcDbSymbolTableRecord
100
AcDbLinetypeTableRecord
  2
CONTINUOUS
 70
     0
  3
Solid line
 72
    65
 73
     0
 40
0.0
  0
ENDTAB
  0
TABLE
  2
LAYER
  5
2
100
AcDbSymbolTable
 70
1
  0
LAYER
  5
50
100
AcDbSymbolTableRecord
100
AcDbLayerTableRecord
  2
0
 70
0
  6
CONTINUOUS
  0
ENDTAB
  0
TABLE
  2
STYLE
  5
3
330
0
100
AcDbSymbolTable
 70
     1
  0
STYLE
  5
11
330
3
100
AcDbSymbolTableRecord
100
AcDbTextStyleTableRecord
  2
STANDARD
 70
     0
 40
0.0
 41
1.0
 50
0.0
 71
     0
 42
2.5
  3
txt
  4

  0
ENDTAB
  0
TABLE
  2
VIEW
  5
6
330
0
100
AcDbSymbolTable
 70
     0
  0
ENDTAB
  0
TABLE
  2
UCS
  5
7
330
0
100
AcDbSymbolTable
 70
     0
  0
ENDTAB
  0
TABLE
  2
APPID
  5
9
330
0
100
AcDbSymbolTable
 70
     2
  0
APPID
  5
12
330
9
100
AcDbSymbolTableRecord
100
AcDbRegAppTableRecord
  2
ACAD
 70
     0
  0
ENDTAB
  0
TABLE
  2
DIMSTYLE
  5
A
330
0
100
AcDbSymbolTable
 70
     1
  0
DIMSTYLE
105
27
330
A
100
AcDbSymbolTableRecord
100
AcDbDimStyleTableRecord
  2
ISO-25
 70
     0
  3

  4

  5

  6

  7

 40
1.0
 41
2.5
 42
0.625
 43
3.75
 44
1.25
 45
0.0
 46
0.0
 47
0.0
 48
0.0
140
2.5
141
2.5
142
0.0
143
0.03937007874016
144
1.0
145
0.0
146
1.0
147
0.625
 71
     0
 72
     0
 73
     0
 74
     0
 75
     0
 76
     0
 77
     1
 78
     8
170
     0
171
     3
172
     1
173
     0
174
     0
175
     0
176
     0
177
     0
178
     0
270
     2
271
     2
272
     2
273
     2
274
     3
340
11
275
     0
280
     0
281
     0
282
     0
283
     0
284
     8
285
     0
286
     0
287
     3
288
     0
  0
ENDTAB
  0
TABLE
  2
BLOCK_RECORD
  5
1
330
0
100
AcDbSymbolTable
 70
     1
  0
BLOCK_RECORD
  5
1F
330
1
100
AcDbSymbolTableRecord
100
AcDbBlockTableRecord
  2
*MODEL_SPACE
  0
BLOCK_RECORD
  5
1B
330
1
100
AcDbSymbolTableRecord
100
AcDbBlockTableRecord
  2
*PAPER_SPACE
  0
ENDTAB
  0
ENDSEC
  0
SECTION
  2
BLOCKS
  0
BLOCK
  5
20
330
1F
100
AcDbEntity
  8
0
100
AcDbBlockBegin
  2
*MODEL_SPACE
 70
     0
 10
0.0
 20
0.0
 30
0.0
  3
*MODEL_SPACE
  1

  0
ENDBLK
  5
21
330
1F
100
AcDbEntity
  8
0
100
AcDbBlockEnd
  0
BLOCK
  5
1C
330
1B
100
AcDbEntity
 67
     1
  8
0
100
AcDbBlockBegin
  2
*PAPER_SPACE
  1

  0
ENDBLK
  5
1D
330
1B
100
AcDbEntity
 67
     1
  8
0
100
AcDbBlockEnd
  0
ENDSEC
  0
SECTION
  2
ENTITIES
  0
LWPOLYLINE
  5
100
100
AcDbEntity
  8
0
 62
7
100
AcDbPolyline
 90
313
 70
0
 10
116.092000
 20
15.070399
 30
0.0
 10
116.092000
 20
21.141299
 30
0.0
 10
116.092000
 20
27.212199
 30
0.0
 10
116.092000
 20
33.283099
 30
0.0
 10
116.092000
 20
39.353999
 30
0.0
 10
116.092000
 20
45.424899
 30
0.0
 10
116.092000
 20
51.495799
 30
0.0
 10
116.092000
 20
57.566699
 30
0.0
 10
116.092000
 20
63.637599
 30
0.0
 10
115.539496
 20
63.245499
 30
0.0
 10
114.987000
 20
62.853399
 30
0.0
 10
114.434496
 20
62.461299
 30
0.0
 10
113.882000
 20
62.069199
 30
0.0
 10
113.329496
 20
61.677099
 30
0.0
 10
112.777000
 20
61.284999
 30
0.0
 10
112.224496
 20
60.892899
 30
0.0
 10
111.672000
 20
60.500799
 30
0.0
 10
110.165496
 20
59.431599
 30
0.0
 10
108.659000
 20
58.362399
 30
0.0
 10
107.152496
 20
57.293199
 30
0.0
 10
105.646000
 20
56.223999
 30
0.0
 10
104.139496
 20
55.154799
 30
0.0
 10
102.633000
 20
54.085599
 30
0.0
 10
101.126496
 20
53.016399
 30
0.0
 10
99.620000
 20
51.947199
 30
0.0
 10
99.282600
 20
51.947199
 30
0.0
 10
98.945200
 20
51.947199
 30
0.0
 10
98.607800
 20
51.947199
 30
0.0
 10
98.270400
 20
51.947199
 30
0.0
 10
97.933000
 20
51.947199
 30
0.0
 10
97.595600
 20
51.947199
 30
0.0
 10
97.258200
 20
51.947199
 30
0.0
 10
96.920800
 20
51.947199
 30
0.0
 10
96.920800
 20
54.014599
 30
0.0
 10
96.920800
 20
56.081999
 30
0.0
 10
96.920800
 20
58.149399
 30
0.0
 10
96.920800
 20
60.216799
 30
0.0
 10
96.920800
 20
62.284199
 30
0.0
 10
96.920800
 20
64.351599
 30
0.0
 10
96.920800
 20
66.418999
 30
0.0
 10
96.920800
 20
68.486399
 30
0.0
 10
96.867760
 20
69.528815
 30
0.0
 10
96.711704
 20
70.542674
 30
0.0
 10
96.458144
 20
71.522296
 30
0.0
 10
96.112600
 20
72.461999
 30
0.0
 10
95.680584
 20
73.356102
 30
0.0
 10
95.167600
 20
74.198924
 30
0.0
 10
94.579168
 20
74.984783
 30
0.0
 10
93.920800
 20
75.707999
 30
0.0
 10
93.197584
 20
76.366368
 30
0.0
 10
92.411728
 20
76.954799
 30
0.0
 10
91.568904
 20
77.467781
 30
0.0
 10
90.674800
 20
77.899799
 30
0.0
 10
89.735096
 20
78.245343
 30
0.0
 10
88.755472
 20
78.498899
 30
0.0
 10
87.741616
 20
78.654955
 30
0.0
 10
86.699200
 20
78.707995
 30
0.0
 10
84.998400
 20
78.707995
 30
0.0
 10
83.297600
 20
78.707995
 30
0.0
 10
81.596800
 20
78.707995
 30
0.0
 10
79.896000
 20
78.707995
 30
0.0
 10
78.195200
 20
78.707995
 30
0.0
 10
76.494400
 20
78.707995
 30
0.0
 10
74.793600
 20
78.707995
 30
0.0
 10
73.092800
 20
78.707995
 30
0.0
 10
72.829689
 20
79.904826
 30
0.0
 10
72.478913
 20
81.066745
 30
0.0
 10
72.044005
 20
82.189593
 30
0.0
 10
71.528500
 20
83.269199
 30
0.0
 10
70.935933
 20
84.301405
 30
0.0
 10
70.269838
 20
85.282049
 30
0.0
 10
69.533749
 20
86.206968
 30
0.0
 10
68.731200
 20
87.071999
 30
0.0
 10
67.612049
 20
88.089818
 30
0.0
 10
66.396887
 20
88.998249
 30
0.0
 10
65.094258
 20
89.789155
 30
0.0
 10
63.712700
 20
90.454399
 30
0.0
 10
62.260754
 20
90.985843
 30
0.0
 10
60.746962
 20
91.375349
 30
0.0
 10
59.179864
 20
91.614780
 30
0.0
 10
57.568000
 20
91.695999
 30
0.0
 10
55.955839
 20
91.614779
 30
0.0
 10
54.388462
 20
91.375336
 30
0.0
 10
52.874430
 20
90.985800
 30
0.0
 10
51.422300
 20
90.454299
 30
0.0
 10
50.040633
 20
89.788960
 30
0.0
 10
48.737987
 20
88.997911
 30
0.0
 10
47.522923
 20
88.089282
 30
0.0
 10
46.404000
 20
87.071199
 30
0.0
 10
45.601223
 20
86.206432
 30
0.0
 10
44.865038
 20
85.281711
 30
0.0
 10
44.198958
 20
84.301210
 30
0.0
 10
43.606500
 20
83.269099
 30
0.0
 10
43.091180
 20
82.189550
 30
0.0
 10
42.656513
 20
81.066737
 30
0.0
 10
42.306014
 20
79.904829
 30
0.0
 10
42.043200
 20
78.707999
 30
0.0
 10
40.342300
 20
78.707999
 30
0.0
 10
38.641400
 20
78.707999
 30
0.0
 10
36.940500
 20
78.707999
 30
0.0
 10
35.239600
 20
78.707999
 30
0.0
 10
33.538700
 20
78.707999
 30
0.0
 10
31.837800
 20
78.707999
 30
0.0
 10
30.136900
 20
78.707999
 30
0.0
 10
28.436000
 20
78.707999
 30
0.0
 10
27.393586
 20
78.654959
 30
0.0
 10
26.379738
 20
78.498903
 30
0.0
 10
25.400146
 20
78.245347
 30
0.0
 10
24.460500
 20
77.899803
 30
0.0
 10
23.566492
 20
77.467785
 30
0.0
 10
22.723813
 20
76.954803
 30
0.0
 10
21.938151
 20
76.366372
 30
0.0
 10
21.215200
 20
75.708003
 30
0.0
 10
20.556831
 20
74.984787
 30
0.0
 10
19.968400
 20
74.198928
 30
0.0
 10
19.455418
 20
73.356106
 30
0.0
 10
19.023400
 20
72.462003
 30
0.0
 10
18.677856
 20
71.522300
 30
0.0
 10
18.424300
 20
70.542678
 30
0.0
 10
18.268244
 20
69.528819
 30
0.0
 10
18.215196
 20
68.486403
 30
0.0
 10
18.215196
 20
67.412403
 30
0.0
 10
18.215196
 20
66.338403
 30
0.0
 10
18.215196
 20
65.264403
 30
0.0
 10
18.215196
 20
64.190403
 30
0.0
 10
18.215196
 20
63.116403
 30
0.0
 10
18.215196
 20
62.042403
 30
0.0
 10
18.215196
 20
60.968403
 30
0.0
 10
18.215196
 20
59.894403
 30
0.0
 10
15.938296
 20
59.276603
 30
0.0
 10
13.661396
 20
58.658803
 30
0.0
 10
11.384496
 20
58.041003
 30
0.0
 10
9.107596
 20
57.423203
 30
0.0
 10
6.830696
 20
56.805403
 30
0.0
 10
4.553796
 20
56.187603
 30
0.0
 10
2.276896
 20
55.569803
 30
0.0
 10
0.000000
 20
54.951999
 30
0.0
 10
2.654000
 20
54.163699
 30
0.0
 10
5.308000
 20
53.375399
 30
0.0
 10
7.962000
 20
52.587099
 30
0.0
 10
10.616000
 20
51.798799
 30
0.0
 10
13.270000
 20
51.010499
 30
0.0
 10
15.924000
 20
50.222199
 30
0.0
 10
18.578000
 20
49.433899
 30
0.0
 10
21.232000
 20
48.645599
 30
0.0
 10
18.629200
 20
47.872499
 30
0.0
 10
16.026400
 20
47.099399
 30
0.0
 10
13.423600
 20
46.326299
 30
0.0
 10
10.820800
 20
45.553199
 30
0.0
 10
8.218000
 20
44.780099
 30
0.0
 10
5.615200
 20
44.006999
 30
0.0
 10
3.012400
 20
43.233899
 30
0.0
 10
0.409600
 20
42.460799
 30
0.0
 10
3.012400
 20
41.687799
 30
0.0
 10
5.615200
 20
40.914799
 30
0.0
 10
8.218000
 20
40.141799
 30
0.0
 10
10.820800
 20
39.368799
 30
0.0
 10
13.423600
 20
38.595799
 30
0.0
 10
16.026400
 20
37.822799
 30
0.0
 10
18.629200
 20
37.049799
 30
0.0
 10
21.232000
 20
36.276799
 30
0.0
 10
18.629200
 20
35.503699
 30
0.0
 10
16.026400
 20
34.730599
 30
0.0
 10
13.423600
 20
33.957499
 30
0.0
 10
10.820800
 20
33.184399
 30
0.0
 10
8.218000
 20
32.411299
 30
0.0
 10
5.615200
 20
31.638199
 30
0.0
 10
3.012400
 20
30.865099
 30
0.0
 10
0.409600
 20
30.091999
 30
0.0
 10
3.016700
 20
29.317699
 30
0.0
 10
5.623800
 20
28.543399
 30
0.0
 10
8.230900
 20
27.769099
 30
0.0
 10
10.838000
 20
26.994799
 30
0.0
 10
13.445100
 20
26.220499
 30
0.0
 10
16.052200
 20
25.446199
 30
0.0
 10
18.659300
 20
24.671899
 30
0.0
 10
21.266400
 20
23.897599
 30
0.0
 10
20.885000
 20
23.783399
 30
0.0
 10
20.503600
 20
23.669199
 30
0.0
 10
20.122200
 20
23.554999
 30
0.0
 10
19.740800
 20
23.440799
 30
0.0
 10
19.359400
 20
23.326599
 30
0.0
 10
18.978000
 20
23.212399
 30
0.0
 10
18.596600
 20
23.098199
 30
0.0
 10
18.215200
 20
22.983999
 30
0.0
 10
18.215200
 20
21.388699
 30
0.0
 10
18.215200
 20
19.793399
 30
0.0
 10
18.215200
 20
18.198099
 30
0.0
 10
18.215200
 20
16.602800
 30
0.0
 10
18.215200
 20
15.007500
 30
0.0
 10
18.215200
 20
13.412200
 30
0.0
 10
18.215200
 20
11.816900
 30
0.0
 10
18.215200
 20
10.221600
 30
0.0
 10
18.268248
 20
9.178952
 30
0.0
 10
18.424304
 20
8.164984
 30
0.0
 10
18.677860
 20
7.185352
 30
0.0
 10
19.023404
 20
6.245704
 30
0.0
 10
19.455422
 20
5.351688
 30
0.0
 10
19.968404
 20
4.508960
 30
0.0
 10
20.556835
 20
3.723184
 30
0.0
 10
21.215204
 20
3.000000
 30
0.0
 10
21.938420
 20
2.341632
 30
0.0
 10
22.724279
 20
1.753200
 30
0.0
 10
23.567101
 20
1.240216
 30
0.0
 10
24.461204
 20
0.808200
 30
0.0
 10
25.400907
 20
0.462656
 30
0.0
 10
26.380529
 20
0.209096
 30
0.0
 10
27.394388
 20
0.053040
 30
0.0
 10
28.436804
 20
-0.000000
 30
0.0
 10
30.804804
 20
-0.000000
 30
0.0
 10
33.172804
 20
-0.000000
 30
0.0
 10
35.540804
 20
-0.000000
 30
0.0
 10
37.908804
 20
-0.000000
 30
0.0
 10
40.276804
 20
-0.000000
 30
0.0
 10
42.644804
 20
-0.000000
 30
0.0
 10
45.012804
 20
-0.000000
 30
0.0
 10
47.380804
 20
-0.000000
 30
0.0
 10
47.380804
 20
0.350000
 30
0.0
 10
47.380804
 20
0.700000
 30
0.0
 10
47.380804
 20
1.050000
 30
0.0
 10
47.380804
 20
1.400000
 30
0.0
 10
47.380804
 20
1.750000
 30
0.0
 10
47.380804
 20
2.100000
 30
0.0
 10
47.380804
 20
2.450000
 30
0.0
 10
47.380804
 20
2.800000
 30
0.0
 10
47.433420
 20
3.843928
 30
0.0
 10
47.587390
 20
4.855904
 30
0.0
 10
47.837792
 20
5.831424
 30
0.0
 10
48.179703
 20
6.766000
 30
0.0
 10
48.608202
 20
7.655128
 30
0.0
 10
49.118366
 20
8.494304
 30
0.0
 10
49.705274
 20
9.279024
 30
0.0
 10
50.364003
 20
10.004800
 30
0.0
 10
51.089514
 20
10.663528
 30
0.0
 10
51.874041
 20
11.250440
 30
0.0
 10
52.713074
 20
11.760601
 30
0.0
 10
53.602103
 20
12.189099
 30
0.0
 10
54.536620
 20
12.531010
 30
0.0
 10
55.512116
 20
12.781412
 30
0.0
 10
56.524080
 20
12.935382
 30
0.0
 10
57.568003
 20
12.987998
 30
0.0
 10
58.611628
 20
12.935118
 30
0.0
 10
59.623303
 20
12.780961
 30
0.0
 10
60.598528
 20
12.530447
 30
0.0
 10
61.532803
 20
12.188498
 30
0.0
 10
62.421628
 20
11.760038
 30
0.0
 10
63.260503
 20
11.249983
 30
0.0
 10
64.044928
 20
10.663263
 30
0.0
 10
64.770403
 20
10.004799
 30
0.0
 10
65.429397
 20
9.279023
 30
0.0
 10
66.016503
 20
8.494303
 30
0.0
 10
66.526810
 20
7.655127
 30
0.0
 10
66.955403
 20
6.765999
 30
0.0
 10
67.297372
 20
5.831423
 30
0.0
 10
67.547803
 20
4.855903
 30
0.0
 10
67.701785
 20
3.843927
 30
0.0
 10
67.754401
 20
2.799999
 30
0.0
 10
67.754401
 20
2.449999
 30
0.0
 10
67.754401
 20
2.099999
 30
0.0
 10
67.754401
 20
1.749999
 30
0.0
 10
67.754401
 20
1.399999
 30
0.0
 10
67.754401
 20
1.049999
 30
0.0
 10
67.754401
 20
0.699999
 30
0.0
 10
67.754401
 20
0.349999
 30
0.0
 10
67.754401
 20
-0.000001
 30
0.0
 10
70.122401
 20
-0.000001
 30
0.0
 10
72.490401
 20
-0.000001
 30
0.0
 10
74.858401
 20
-0.000001
 30
0.0
 10
77.226401
 20
-0.000001
 30
0.0
 10
79.594401
 20
-0.000001
 30
0.0
 10
81.962401
 20
-0.000001
 30
0.0
 10
84.330401
 20
-0.000001
 30
0.0
 10
86.698401
 20
-0.000001
 30
0.0
 10
87.741081
 20
0.053039
 30
0.0
 10
88.755129
 20
0.209095
 30
0.0
 10
89.734857
 20
0.462655
 30
0.0
 10
90.674601
 20
0.808199
 30
0.0
 10
91.568665
 20
1.240215
 30
0.0
 10
92.411377
 20
1.753199
 30
0.0
 10
93.197049
 20
2.341631
 30
0.0
 10
93.920001
 20
2.999999
 30
0.0
 10
94.578369
 20
3.723479
 30
0.0
 10
95.166801
 20
4.509527
 30
0.0
 10
95.679785
 20
5.352455
 30
0.0
 10
96.111801
 20
6.246599
 30
0.0
 10
96.457345
 20
7.186263
 30
0.0
 10
96.710905
 20
8.165775
 30
0.0
 10
96.866961
 20
9.179447
 30
0.0
 10
96.920001
 20
10.221599
 30
0.0
 10
96.920001
 20
12.289399
 30
0.0
 10
96.920001
 20
14.357199
 30
0.0
 10
96.920001
 20
16.424999
 30
0.0
 10
96.920001
 20
18.492799
 30
0.0
 10
96.920001
 20
20.560598
 30
0.0
 10
96.920001
 20
22.628398
 30
0.0
 10
96.920001
 20
24.696198
 30
0.0
 10
96.920001
 20
26.763998
 30
0.0
 10
97.257305
 20
26.763998
 30
0.0
 10
97.594601
 20
26.763998
 30
0.0
 10
97.931905
 20
26.763998
 30
0.0
 10
98.269201
 20
26.763998
 30
0.0
 10
98.606505
 20
26.763998
 30
0.0
 10
98.943801
 20
26.763998
 30
0.0
 10
99.281105
 20
26.763998
 30
0.0
 10
99.618401
 20
26.763998
 30
0.0
 10
101.677601
 20
25.302298
 30
0.0
 10
103.736801
 20
23.840598
 30
0.0
 10
105.796001
 20
22.378898
 30
0.0
 10
107.855201
 20
20.917198
 30
0.0
 10
109.914401
 20
19.455498
 30
0.0
 10
111.973601
 20
17.993798
 30
0.0
 10
114.032801
 20
16.532098
 30
0.0
 10
116.092000
 20
15.070399
 30
0.0
  0
LWPOLYLINE
  5
101
100
AcDbEntity
  8
0
 62
7
100
AcDbPolyline
 90
33
 70
0
 10
103.311200
 20
31.009599
 30
0.0
 10
103.311200
 20
33.095799
 30
0.0
 10
103.311200
 20
35.181999
 30
0.0
 10
103.311200
 20
37.268199
 30
0.0
 10
103.311200
 20
39.354399
 30
0.0
 10
103.311200
 20
41.440599
 30
0.0
 10
103.311200
 20
43.526799
 30
0.0
 10
103.311200
 20
45.612999
 30
0.0
 10
103.311200
 20
47.699199
 30
0.0
 10
104.208896
 20
48.336299
 30
0.0
 10
105.106600
 20
48.973399
 30
0.0
 10
106.004304
 20
49.610499
 30
0.0
 10
106.902000
 20
50.247599
 30
0.0
 10
107.799696
 20
50.884699
 30
0.0
 10
108.697400
 20
51.521799
 30
0.0
 10
109.595096
 20
52.158899
 30
0.0
 10
110.492800
 20
52.795999
 30
0.0
 10
110.492800
 20
49.435599
 30
0.0
 10
110.492800
 20
46.075199
 30
0.0
 10
110.492800
 20
42.714799
 30
0.0
 10
110.492800
 20
39.354399
 30
0.0
 10
110.492800
 20
35.993999
 30
0.0
 10
110.492800
 20
32.633599
 30
0.0
 10
110.492800
 20
29.273199
 30
0.0
 10
110.492800
 20
25.912799
 30
0.0
 10
109.595096
 20
26.549899
 30
0.0
 10
108.697400
 20
27.186999
 30
0.0
 10
107.799696
 20
27.824099
 30
0.0
 10
106.902000
 20
28.461199
 30
0.0
 10
106.004304
 20
29.098299
 30
0.0
 10
105.106600
 20
29.735399
 30
0.0
 10
104.208896
 20
30.372499
 30
0.0
 10
103.311200
 20
31.009599
 30
0.0
  0
LWPOLYLINE
  5
102
100
AcDbEntity
  8
0
 62
7
100
AcDbPolyline
 90
33
 70
0
 10
97.711200
 20
32.363199
 30
0.0
 10
96.287800
 20
32.363199
 30
0.0
 10
94.864400
 20
32.363199
 30
0.0
 10
93.441000
 20
32.363199
 30
0.0
 10
92.017600
 20
32.363199
 30
0.0
 10
90.594200
 20
32.363199
 30
0.0
 10
89.170800
 20
32.363199
 30
0.0
 10
87.747400
 20
32.363199
 30
0.0
 10
86.324000
 20
32.363199
 30
0.0
 10
86.324000
 20
34.111099
 30
0.0
 10
86.324000
 20
35.858999
 30
0.0
 10
86.324000
 20
37.606899
 30
0.0
 10
86.324000
 20
39.354799
 30
0.0
 10
86.324000
 20
41.102699
 30
0.0
 10
86.324000
 20
42.850599
 30
0.0
 10
86.324000
 20
44.598499
 30
0.0
 10
86.324000
 20
46.346399
 30
0.0
 10
87.747400
 20
46.346399
 30
0.0
 10
89.170800
 20
46.346399
 30
0.0
 10
90.594200
 20
46.346399
 30
0.0
 10
92.017600
 20
46.346399
 30
0.0
 10
93.441000
 20
46.346399
 30
0.0
 10
94.864400
 20
46.346399
 30
0.0
 10
96.287800
 20
46.346399
 30
0.0
 10
97.711200
 20
46.346399
 30
0.0
 10
97.711200
 20
44.598499
 30
0.0
 10
97.711200
 20
42.850599
 30
0.0
 10
97.711200
 20
41.102699
 30
0.0
 10
97.711200
 20
39.354799
 30
0.0
 10
97.711200
 20
37.606899
 30
0.0
 10
97.711200
 20
35.858999
 30
0.0
 10
97.711200
 20
34.111099
 30
0.0
 10
97.711200
 20
32.363199
 30
0.0
  0
LWPOLYLINE
  5
103
100
AcDbEntity
  8
0
 62
7
100
AcDbPolyline
 90
297
 70
0
 10
91.320000
 20
10.221600
 30
0.0
 10
91.296080
 20
9.751784
 30
0.0
 10
91.226240
 20
9.295840
 30
0.0
 10
91.112560
 20
8.855696
 30
0.0
 10
90.957152
 20
8.433304
 30
0.0
 10
90.762112
 20
8.030592
 30
0.0
 10
90.529520
 20
7.649512
 30
0.0
 10
90.261472
 20
7.292000
 30
0.0
 10
89.960056
 20
6.960000
 30
0.0
 10
89.628056
 20
6.658360
 30
0.0
 10
89.270544
 20
6.390200
 30
0.0
 10
88.889464
 20
6.157592
 30
0.0
 10
88.486752
 20
5.962600
 30
0.0
 10
88.064360
 20
5.807280
 30
0.0
 10
87.624216
 20
5.693704
 30
0.0
 10
87.168272
 20
5.623944
 30
0.0
 10
86.698456
 20
5.600024
 30
0.0
 10
84.997656
 20
5.600024
 30
0.0
 10
83.296856
 20
5.600024
 30
0.0
 10
81.596056
 20
5.600024
 30
0.0
 10
79.895256
 20
5.600024
 30
0.0
 10
78.194456
 20
5.600024
 30
0.0
 10
76.493656
 20
5.600024
 30
0.0
 10
74.792856
 20
5.600024
 30
0.0
 10
73.092056
 20
5.600024
 30
0.0
 10
72.828945
 20
6.797120
 30
0.0
 10
72.478169
 20
7.959224
 30
0.0
 10
72.043261
 20
9.082176
 30
0.0
 10
71.527756
 20
10.161824
 30
0.0
 10
70.935189
 20
11.193992
 30
0.0
 10
70.269038
 20
12.174499
 30
0.0
 10
69.532949
 20
13.099230
 30
0.0
 10
68.730400
 20
13.963999
 30
0.0
 10
67.611249
 20
14.981588
 30
0.0
 10
66.396087
 20
15.889912
 30
0.0
 10
65.093458
 20
16.680804
 30
0.0
 10
63.711900
 20
17.346099
 30
0.0
 10
62.259954
 20
17.877632
 30
0.0
 10
60.746162
 20
18.267237
 30
0.0
 10
59.179064
 20
18.506748
 30
0.0
 10
57.567200
 20
18.587999
 30
0.0
 10
55.955039
 20
18.506781
 30
0.0
 10
54.387662
 20
18.267350
 30
0.0
 10
52.873630
 20
17.877843
 30
0.0
 10
51.421500
 20
17.346399
 30
0.0
 10
50.039833
 20
16.681155
 30
0.0
 10
48.737187
 20
15.890250
 30
0.0
 10
47.522123
 20
14.981818
 30
0.0
 10
46.403200
 20
13.963999
 30
0.0
 10
45.600653
 20
13.099230
 30
0.0
 10
44.864575
 20
12.174499
 30
0.0
 10
44.198510
 20
11.193968
 30
0.0
 10
43.606000
 20
10.161800
 30
0.0
 10
43.090590
 20
9.082152
 30
0.0
 10
42.655825
 20
7.959200
 30
0.0
 10
42.305247
 20
6.797096
 30
0.0
 10
42.042400
 20
5.600000
 30
0.0
 10
40.341600
 20
5.600000
 30
0.0
 10
38.640800
 20
5.600000
 30
0.0
 10
36.940000
 20
5.600000
 30
0.0
 10
35.239200
 20
5.600000
 30
0.0
 10
33.538400
 20
5.600000
 30
0.0
 10
31.837600
 20
5.600000
 30
0.0
 10
30.136800
 20
5.600000
 30
0.0
 10
28.436000
 20
5.600000
 30
0.0
 10
27.966449
 20
5.623920
 30
0.0
 10
27.510687
 20
5.693760
 30
0.0
 10
27.070658
 20
5.807440
 30
0.0
 10
26.648300
 20
5.962848
 30
0.0
 10
26.245554
 20
6.157888
 30
0.0
 10
25.864362
 20
6.390480
 30
0.0
 10
25.506664
 20
6.658528
 30
0.0
 10
25.174400
 20
6.959944
 30
0.0
 10
24.872986
 20
7.291976
 30
0.0
 10
24.604938
 20
7.649568
 30
0.0
 10
24.372346
 20
8.030744
 30
0.0
 10
24.177300
 20
8.433544
 30
0.0
 10
24.021892
 20
8.855992
 30
0.0
 10
23.908213
 20
9.296120
 30
0.0
 10
23.838349
 20
9.751960
 30
0.0
 10
23.814397
 20
10.221544
 30
0.0
 10
23.814397
 20
11.295744
 30
0.0
 10
23.814397
 20
12.369944
 30
0.0
 10
23.814397
 20
13.444144
 30
0.0
 10
23.814397
 20
14.518344
 30
0.0
 10
23.814397
 20
15.592543
 30
0.0
 10
23.814397
 20
16.666743
 30
0.0
 10
23.814397
 20
17.740943
 30
0.0
 10
23.814397
 20
18.815143
 30
0.0
 10
25.945797
 20
19.453143
 30
0.0
 10
28.077197
 20
20.091143
 30
0.0
 10
30.208597
 20
20.729143
 30
0.0
 10
32.339997
 20
21.367143
 30
0.0
 10
34.471397
 20
22.005143
 30
0.0
 10
36.602797
 20
22.643143
 30
0.0
 10
38.734197
 20
23.281143
 30
0.0
 10
40.865597
 20
23.919143
 30
0.0
 10
38.267100
 20
24.690899
 30
0.0
 10
35.668600
 20
25.462599
 30
0.0
 10
33.070100
 20
26.234299
 30
0.0
 10
30.471600
 20
27.005999
 30
0.0
 10
27.873100
 20
27.777699
 30
0.0
 10
25.274600
 20
28.549399
 30
0.0
 10
22.676100
 20
29.321099
 30
0.0
 10
20.077600
 20
30.092799
 30
0.0
 10
22.680400
 20
30.865799
 30
0.0
 10
25.283200
 20
31.638799
 30
0.0
 10
27.886000
 20
32.411799
 30
0.0
 10
30.488800
 20
33.184799
 30
0.0
 10
33.091600
 20
33.957799
 30
0.0
 10
35.694400
 20
34.730799
 30
0.0
 10
38.297200
 20
35.503799
 30
0.0
 10
40.900000
 20
36.276799
 30
0.0
 10
38.297200
 20
37.049799
 30
0.0
 10
35.694400
 20
37.822799
 30
0.0
 10
33.091600
 20
38.595799
 30
0.0
 10
30.488800
 20
39.368799
 30
0.0
 10
27.886000
 20
40.141799
 30
0.0
 10
25.283200
 20
40.914799
 30
0.0
 10
22.680400
 20
41.687799
 30
0.0
 10
20.077600
 20
42.460799
 30
0.0
 10
22.680400
 20
43.233899
 30
0.0
 10
25.283200
 20
44.006999
 30
0.0
 10
27.886000
 20
44.780099
 30
0.0
 10
30.488800
 20
45.553199
 30
0.0
 10
33.091600
 20
46.326299
 30
0.0
 10
35.694400
 20
47.099399
 30
0.0
 10
38.297200
 20
47.872499
 30
0.0
 10
40.900000
 20
48.645599
 30
0.0
 10
38.348400
 20
49.403499
 30
0.0
 10
35.796800
 20
50.161399
 30
0.0
 10
33.245200
 20
50.919299
 30
0.0
 10
30.693600
 20
51.677199
 30
0.0
 10
28.142000
 20
52.435099
 30
0.0
 10
25.590400
 20
53.192999
 30
0.0
 10
23.038800
 20
53.950899
 30
0.0
 10
20.487200
 20
54.708799
 30
0.0
 10
20.903100
 20
54.821599
 30
0.0
 10
21.319000
 20
54.934399
 30
0.0
 10
21.734900
 20
55.047199
 30
0.0
 10
22.150800
 20
55.159999
 30
0.0
 10
22.566700
 20
55.272799
 30
0.0
 10
22.982600
 20
55.385599
 30
0.0
 10
23.398500
 20
55.498399
 30
0.0
 10
23.814400
 20
55.611199
 30
0.0
 10
23.814400
 20
57.220599
 30
0.0
 10
23.814400
 20
58.829999
 30
0.0
 10
23.814400
 20
60.439399
 30
0.0
 10
23.814400
 20
62.048799
 30
0.0
 10
23.814400
 20
63.658199
 30
0.0
 10
23.814400
 20
65.267599
 30
0.0
 10
23.814400
 20
66.876999
 30
0.0
 10
23.814400
 20
68.486399
 30
0.0
 10
23.838352
 20
68.955950
 30
0.0
 10
23.908216
 20
69.411712
 30
0.0
 10
24.021895
 20
69.851742
 30
0.0
 10
24.177303
 20
70.274099
 30
0.0
 10
24.372349
 20
70.676845
 30
0.0
 10
24.604941
 20
71.058037
 30
0.0
 10
24.872989
 20
71.415735
 30
0.0
 10
25.174403
 20
71.747999
 30
0.0
 10
25.506667
 20
72.049414
 30
0.0
 10
25.864366
 20
72.317462
 30
0.0
 10
26.245558
 20
72.550054
 30
0.0
 10
26.648303
 20
72.745099
 30
0.0
 10
27.070661
 20
72.900507
 30
0.0
 10
27.510690
 20
73.014186
 30
0.0
 10
27.966452
 20
73.084050
 30
0.0
 10
28.436003
 20
73.108002
 30
0.0
 10
30.804003
 20
73.108002
 30
0.0
 10
33.172003
 20
73.108002
 30
0.0
 10
35.540003
 20
73.108002
 30
0.0
 10
37.908003
 20
73.108002
 30
0.0
 10
40.276003
 20
73.108002
 30
0.0
 10
42.644003
 20
73.108002
 30
0.0
 10
45.012003
 20
73.108002
 30
0.0
 10
47.380003
 20
73.108002
 30
0.0
 10
47.380003
 20
73.458002
 30
0.0
 10
47.380003
 20
73.808002
 30
0.0
 10
47.380003
 20
74.158002
 30
0.0
 10
47.380003
 20
74.508002
 30
0.0
 10
47.380003
 20
74.858002
 30
0.0
 10
47.380003
 20
75.208002
 30
0.0
 10
47.380003
 20
75.558002
 30
0.0
 10
47.380003
 20
75.908002
 30
0.0
 10
47.432619
 20
76.951893
 30
0.0
 10
47.586590
 20
77.963778
 30
0.0
 10
47.836991
 20
78.939174
 30
0.0
 10
48.178902
 20
79.873602
 30
0.0
 10
48.607401
 20
80.762581
 30
0.0
 10
49.117565
 20
81.601627
 30
0.0
 10
49.704473
 20
82.386262
 30
0.0
 10
50.363202
 20
83.112002
 30
0.0
 10
51.088714
 20
83.770734
 30
0.0
 10
51.873240
 20
84.357652
 30
0.0
 10
52.712273
 20
84.867846
 30
0.0
 10
53.601302
 20
85.296402
 30
0.0
 10
54.535819
 20
85.638408
 30
0.0
 10
55.511315
 20
85.888952
 30
0.0
 10
56.523279
 20
86.043121
 30
0.0
 10
57.567202
 20
86.096002
 30
0.0
 10
58.610827
 20
86.043351
 30
0.0
 10
59.622502
 20
85.889290
 30
0.0
 10
60.597727
 20
85.638761
 30
0.0
 10
61.532002
 20
85.296703
 30
0.0
 10
62.420827
 20
84.868058
 30
0.0
 10
63.259702
 20
84.357765
 30
0.0
 10
64.044127
 20
83.770767
 30
0.0
 10
64.769602
 20
83.112003
 30
0.0
 10
65.428596
 20
82.386230
 30
0.0
 10
66.015702
 20
81.601516
 30
0.0
 10
66.526009
 20
80.762370
 30
0.0
 10
66.954602
 20
79.873303
 30
0.0
 10
67.296571
 20
78.938823
 30
0.0
 10
67.547002
 20
77.963441
 30
0.0
 10
67.700984
 20
76.951664
 30
0.0
 10
67.753600
 20
75.908003
 30
0.0
 10
67.753600
 20
75.558003
 30
0.0
 10
67.753600
 20
75.208003
 30
0.0
 10
67.753600
 20
74.858003
 30
0.0
 10
67.753600
 20
74.508003
 30
0.0
 10
67.753600
 20
74.158003
 30
0.0
 10
67.753600
 20
73.808003
 30
0.0
 10
67.753600
 20
73.458003
 30
0.0
 10
67.753600
 20
73.108003
 30
0.0
 10
70.121600
 20
73.108003
 30
0.0
 10
72.489600
 20
73.108003
 30
0.0
 10
74.857600
 20
73.108003
 30
0.0
 10
77.225600
 20
73.108003
 30
0.0
 10
79.593600
 20
73.108003
 30
0.0
 10
81.961600
 20
73.108003
 30
0.0
 10
84.329600
 20
73.108003
 30
0.0
 10
86.697600
 20
73.108003
 30
0.0
 10
87.167416
 20
73.084051
 30
0.0
 10
87.623360
 20
73.014187
 30
0.0
 10
88.063504
 20
72.900508
 30
0.0
 10
88.485896
 20
72.745100
 30
0.0
 10
88.888608
 20
72.550054
 30
0.0
 10
89.269688
 20
72.317462
 30
0.0
 10
89.627200
 20
72.049414
 30
0.0
 10
89.959200
 20
71.748000
 30
0.0
 10
90.260840
 20
71.415736
 30
0.0
 10
90.529000
 20
71.058038
 30
0.0
 10
90.761608
 20
70.676846
 30
0.0
 10
90.956600
 20
70.274100
 30
0.0
 10
91.111920
 20
69.851742
 30
0.0
 10
91.225504
 20
69.411713
 30
0.0
 10
91.295264
 20
68.955951
 30
0.0
 10
91.319184
 20
68.486400
 30
0.0
 10
91.319184
 20
66.418900
 30
0.0
 10
91.319184
 20
64.351400
 30
0.0
 10
91.319184
 20
62.283900
 30
0.0
 10
91.319184
 20
60.216400
 30
0.0
 10
91.319184
 20
58.148900
 30
0.0
 10
91.319184
 20
56.081400
 30
0.0
 10
91.319184
 20
54.013900
 30
0.0
 10
91.319184
 20
51.946400
 30
0.0
 10
89.994584
 20
51.946400
 30
0.0
 10
88.669984
 20
51.946400
 30
0.0
 10
87.345384
 20
51.946400
 30
0.0
 10
86.020784
 20
51.946400
 30
0.0
 10
84.696184
 20
51.946400
 30
0.0
 10
83.371584
 20
51.946400
 30
0.0
 10
82.046984
 20
51.946400
 30
0.0
 10
80.722384
 20
51.946400
 30
0.0
 10
80.722384
 20
48.798500
 30
0.0
 10
80.722384
 20
45.650600
 30
0.0
 10
80.722384
 20
42.502700
 30
0.0
 10
80.722384
 20
39.354800
 30
0.0
 10
80.722384
 20
36.206900
 30
0.0
 10
80.722384
 20
33.059000
 30
0.0
 10
80.722384
 20
29.911100
 30
0.0
 10
80.722384
 20
26.763200
 30
0.0
 10
82.046984
 20
26.763200
 30
0.0
 10
83.371584
 20
26.763200
 30
0.0
 10
84.696184
 20
26.763200
 30
0.0
 10
86.020784
 20
26.763200
 30
0.0
 10
87.345384
 20
26.763200
 30
0.0
 10
88.669984
 20
26.763200
 30
0.0
 10
89.994584
 20
26.763200
 30
0.0
 10
91.319184
 20
26.763200
 30
0.0
 10
91.319184
 20
24.695500
 30
0.0
 10
91.319184
 20
22.627800
 30
0.0
 10
91.319184
 20
20.560100
 30
0.0
 10
91.319184
 20
18.492401
 30
0.0
 10
91.319184
 20
16.424701
 30
0.0
 10
91.319184
 20
14.357001
 30
0.0
 10
91.319184
 20
12.289301
 30
0.0
 10
91.319184
 20
10.221601
 30
0.0
 10
91.319280
 20
10.221601
 30
0.0
 10
91.319384
 20
10.221601
 30
0.0
 10
91.319488
 20
10.221601
 30
0.0
 10
91.319584
 20
10.221601
 30
0.0
 10
91.319688
 20
10.221601
 30
0.0
 10
91.319784
 20
10.221601
 30
0.0
 10
91.319880
 20
10.221601
 30
0.0
 10
91.320000
 20
10.221600
 30
0.0
  0
ENDSEC
  0
SECTION
  2
OBJECTS
  0
DICTIONARY
  5
C
330
0
100
AcDbDictionary
  3
ACAD_GROUP
350
D
  3
ACAD_MLINESTYLE
350
17
  0
DICTIONARY
  5
D
330
C
100
AcDbDictionary
  0
DICTIONARY
  5
1A
330
C
100
AcDbDictionary
  0
DICTIONARY
  5
17
330
C
100
AcDbDictionary
  3
STANDARD
350
18
  0
DICTIONARY
  5
19
330
C
100
AcDbDictionary
  0
ENDSEC
  0
EOF
